REM DIRINDEX 1\2,1\3,1\4,1\5
REM DIRNAME cjc046,folder01,folder02,folder03,folder04
TITLE ""
FILE "114.mp3" MP3
  TRACK 01 AUDIO
    TITLE "0:"
    INDEX 01 00:00:00
  TRACK 02 AUDIO
    TITLE "2:cjc046_2640"
    INDEX 01 00:00:15
  TRACK 03 AUDIO
    TITLE "0:"
    INDEX 01 00:01:19
  TRACK 04 AUDIO
    TITLE "3:cjc046_2641"
    INDEX 01 00:01:48
  TRACK 05 AUDIO
    TITLE "0:"
    INDEX 01 00:02:36
  TRACK 06 AUDIO
    TITLE "4:cjc046_2642"
    INDEX 01 00:02:53
  TRACK 07 AUDIO
    TITLE "0:"
    INDEX 01 00:03:55
  TRACK 08 AUDIO
    TITLE "2:cjc046_2643"
    INDEX 01 00:04:66
  TRACK 09 AUDIO
    TITLE "0:"
    INDEX 01 00:06:10
  TRACK 10 AUDIO
    TITLE "3:cjc046_2644"
    INDEX 01 00:06:35
  TRACK 11 AUDIO
    TITLE "0:"
    INDEX 01 00:07:45
  TRACK 12 AUDIO
    TITLE "4:cjc046_2645"
    INDEX 01 00:07:56
  TRACK 13 AUDIO
    TITLE "0:"
    INDEX 01 00:09:02
  TRACK 14 AUDIO
    TITLE "2:cjc046_2646"
    INDEX 01 00:10:10
  TRACK 15 AUDIO
    TITLE "0:"
    INDEX 01 00:11:15
  TRACK 16 AUDIO
    TITLE "3:cjc046_2647"
    INDEX 01 00:11:37
  TRACK 17 AUDIO
    TITLE "0:"
    INDEX 01 00:12:65
  TRACK 18 AUDIO
    TITLE "4:cjc046_2648"
    INDEX 01 00:13:02
  TRACK 19 AUDIO
    TITLE "0:"
    INDEX 01 00:14:07
  TRACK 20 AUDIO
    TITLE "2:cjc046_2649"
    INDEX 01 00:15:15
  TRACK 21 AUDIO
    TITLE "0:"
    INDEX 01 00:16:36
  TRACK 22 AUDIO
    TITLE "3:cjc046_2650"
    INDEX 01 00:16:61
  TRACK 23 AUDIO
    TITLE "0:"
    INDEX 01 00:17:59
  TRACK 24 AUDIO
    TITLE "4:cjc046_2651"
    INDEX 01 00:18:01
  TRACK 25 AUDIO
    TITLE "0:"
    INDEX 01 00:19:26
  TRACK 26 AUDIO
    TITLE "2:cjc046_2652"
    INDEX 01 00:20:34
  TRACK 27 AUDIO
    TITLE "0:"
    INDEX 01 00:21:57
  TRACK 28 AUDIO
    TITLE "3:cjc046_2653"
    INDEX 01 00:22:05
  TRACK 29 AUDIO
    TITLE "0:"
    INDEX 01 00:22:70
  TRACK 30 AUDIO
    TITLE "4:cjc046_2654"
    INDEX 01 00:23:06
  TRACK 31 AUDIO
    TITLE "0:"
    INDEX 01 00:24:29
  TRACK 32 AUDIO
    TITLE "2:cjc046_2655"
    INDEX 01 00:25:33
  TRACK 33 AUDIO
    TITLE "0:"
    INDEX 01 00:26:52
  TRACK 34 AUDIO
    TITLE "3:cjc046_2656"
    INDEX 01 00:27:02
  TRACK 35 AUDIO
    TITLE "0:"
    INDEX 01 00:28:04
  TRACK 36 AUDIO
    TITLE "4:cjc046_2657"
    INDEX 01 00:28:15
  TRACK 37 AUDIO
    TITLE "0:"
    INDEX 01 00:29:36
  TRACK 38 AUDIO
    TITLE "2:cjc046_2658"
    INDEX 01 00:30:46
  TRACK 39 AUDIO
    TITLE "0:"
    INDEX 01 00:31:51
  TRACK 40 AUDIO
    TITLE "3:cjc046_2659"
    INDEX 01 00:32:01
  TRACK 41 AUDIO
    TITLE "0:"
    INDEX 01 00:33:09
  TRACK 42 AUDIO
    TITLE "4:cjc046_2660"
    INDEX 01 00:33:22
  TRACK 43 AUDIO
    TITLE "0:"
    INDEX 01 00:34:28
  TRACK 44 AUDIO
    TITLE "2:cjc046_2661"
    INDEX 01 00:35:43
  TRACK 45 AUDIO
    TITLE "0:"
    INDEX 01 00:36:44
  TRACK 46 AUDIO
    TITLE "3:cjc046_2662"
    INDEX 01 00:36:72
  TRACK 47 AUDIO
    TITLE "0:"
    INDEX 01 00:38:06
  TRACK 48 AUDIO
    TITLE "4:cjc046_2663"
    INDEX 01 00:38:22
  TRACK 49 AUDIO
    TITLE "0:"
    INDEX 01 00:39:23
  TRACK 50 AUDIO
    TITLE "2:cjc046_2664"
    INDEX 01 00:40:34
  TRACK 51 AUDIO
    TITLE "0:"
    INDEX 01 00:41:49
  TRACK 52 AUDIO
    TITLE "3:cjc046_2665"
    INDEX 01 00:41:71
  TRACK 53 AUDIO
    TITLE "0:"
    INDEX 01 00:43:35
  TRACK 54 AUDIO
    TITLE "4:cjc046_2666"
    INDEX 01 00:43:54
  TRACK 55 AUDIO
    TITLE "0:"
    INDEX 01 00:44:69
  TRACK 56 AUDIO
    TITLE "2:cjc046_2667"
    INDEX 01 00:46:04
  TRACK 57 AUDIO
    TITLE "0:"
    INDEX 01 00:47:11
  TRACK 58 AUDIO
    TITLE "3:cjc046_2668"
    INDEX 01 00:47:34
  TRACK 59 AUDIO
    TITLE "0:"
    INDEX 01 00:48:61
  TRACK 60 AUDIO
    TITLE "4:cjc046_2669"
    INDEX 01 00:49:02
  TRACK 61 AUDIO
    TITLE "0:"
    INDEX 01 00:50:11
  TRACK 62 AUDIO
    TITLE "2:cjc046_2670"
    INDEX 01 00:51:11
  TRACK 63 AUDIO
    TITLE "0:"
    INDEX 01 00:52:16
  TRACK 64 AUDIO
    TITLE "3:cjc046_2671"
    INDEX 01 00:52:45
  TRACK 65 AUDIO
    TITLE "0:"
    INDEX 01 00:54:17
  TRACK 66 AUDIO
    TITLE "4:cjc046_2672"
    INDEX 01 00:54:23
  TRACK 67 AUDIO
    TITLE "0:"
    INDEX 01 00:55:28
  TRACK 68 AUDIO
    TITLE "2:cjc046_2673"
    INDEX 01 00:56:37
  TRACK 69 AUDIO
    TITLE "0:"
    INDEX 01 00:57:41
  TRACK 70 AUDIO
    TITLE "3:cjc046_2674"
    INDEX 01 00:57:68
  TRACK 71 AUDIO
    TITLE "0:"
    INDEX 01 00:58:67
  TRACK 72 AUDIO
    TITLE "4:cjc046_2675"
    INDEX 01 00:59:06
  TRACK 73 AUDIO
    TITLE "0:"
    INDEX 01 01:00:08
  TRACK 74 AUDIO
    TITLE "2:cjc046_2676"
    INDEX 01 01:01:21
  TRACK 75 AUDIO
    TITLE "0:"
    INDEX 01 01:02:26
  TRACK 76 AUDIO
    TITLE "3:cjc046_2677"
    INDEX 01 01:02:50
  TRACK 77 AUDIO
    TITLE "0:"
    INDEX 01 01:03:59
  TRACK 78 AUDIO
    TITLE "4:cjc046_2678"
    INDEX 01 01:04:07
  TRACK 79 AUDIO
    TITLE "0:"
    INDEX 01 01:05:11
  TRACK 80 AUDIO
    TITLE "2:cjc046_2679"
    INDEX 01 01:06:20
  TRACK 81 AUDIO
    TITLE "0:"
    INDEX 01 01:07:23
  TRACK 82 AUDIO
    TITLE "3:cjc046_2680"
    INDEX 01 01:07:49
  TRACK 83 AUDIO
    TITLE "0:"
    INDEX 01 01:09:18
  TRACK 84 AUDIO
    TITLE "4:cjc046_2681"
    INDEX 01 01:09:30
  TRACK 85 AUDIO
    TITLE "0:"
    INDEX 01 01:10:31
  TRACK 86 AUDIO
    TITLE "2:cjc046_2682"
    INDEX 01 01:11:41
  TRACK 87 AUDIO
    TITLE "0:"
    INDEX 01 01:12:48
  TRACK 88 AUDIO
    TITLE "3:cjc046_2683"
    INDEX 01 01:12:73
  TRACK 89 AUDIO
    TITLE "0:"
    INDEX 01 01:14:35
  TRACK 90 AUDIO
    TITLE "4:cjc046_2684"
    INDEX 01 01:14:49
  TRACK 91 AUDIO
    TITLE "0:"
    INDEX 01 01:15:58
